<svg
  width="178"
  height="82"
  viewBox="0 0 178 82"
  fill="none"
  xmlns="http://www.w3.org/2000/svg"
>
  <path
    d="M8.85263 37.008L42.9806 23.976L43.7006 32.904L18.7886 41.544L39.2366 50.976L34.7006 58.968L6.90863 45.432L8.85263 37.008ZM103.042 76.32H92.0981L132.418 6.624H143.29L103.042 76.32ZM169.682 45.936L135.554 58.968L134.834 49.968L159.746 41.328L139.298 31.896L143.834 23.976L171.626 37.512L169.682 45.936Z"
    fill="currentColor"
  />
  <path
    d="M60.4305 54.648C61.5345 54.648 62.6385 54.576 63.7425 54.432C64.8465 54.24 65.8305 53.928 66.6945 53.496C67.5585 53.064 68.2545 52.464 68.7825 51.696C69.3585 50.88 69.6465 49.848 69.6465 48.6C69.6465 47.64 69.3825 46.824 68.8545 46.152C68.3265 45.432 67.6545 44.784 66.8385 44.208C66.0225 43.632 65.1105 43.104 64.1025 42.624C63.0945 42.144 62.0865 41.616 61.0785 41.04C59.7825 40.272 58.5585 39.456 57.4065 38.592C56.2545 37.728 55.2705 36.768 54.4545 35.712C53.6385 34.608 52.9905 33.408 52.5105 32.112C52.0305 30.768 51.7905 29.232 51.7905 27.504C51.7905 25.296 52.1985 23.256 53.0145 21.384C53.8785 19.464 55.1265 17.808 56.7585 16.416C58.4385 15.024 60.5265 13.944 63.0225 13.176C65.5185 12.36 68.4465 11.952 71.8065 11.952C73.3425 11.952 74.8305 12.096 76.2705 12.384C77.7105 12.624 79.0545 12.936 80.3025 13.32C81.5505 13.704 82.6785 14.16 83.6865 14.688C84.7425 15.168 85.6305 15.648 86.3505 16.128L81.6705 24.408C80.4705 23.496 79.0065 22.728 77.2785 22.104C75.5505 21.48 73.6785 21.168 71.6625 21.168C70.5585 21.168 69.5025 21.264 68.4945 21.456C67.4865 21.648 66.5985 21.984 65.8305 22.464C65.0625 22.896 64.4385 23.472 63.9585 24.192C63.5265 24.912 63.3105 25.8 63.3105 26.856C63.3105 27.816 63.4785 28.632 63.8145 29.304C64.1985 29.928 64.6785 30.48 65.2545 30.96C65.8305 31.44 66.5025 31.872 67.2705 32.256C68.0385 32.64 68.8545 33.048 69.7185 33.48C71.2065 34.248 72.6465 35.064 74.0385 35.928C75.4305 36.792 76.6545 37.8 77.7105 38.952C78.7665 40.056 79.6065 41.328 80.2305 42.768C80.8545 44.208 81.1665 45.912 81.1665 47.88C81.1665 50.616 80.6625 52.992 79.6545 55.008C78.6465 57.024 77.2305 58.704 75.4065 60.048C73.5825 61.392 71.3985 62.376 68.8545 63C66.3585 63.672 63.5745 64.008 60.5025 64.008C58.4865 64.008 56.5905 63.84 54.8145 63.504C53.0865 63.168 51.5025 62.784 50.0625 62.352C48.6705 61.872 47.4465 61.368 46.3905 60.84C45.3825 60.312 44.5665 59.832 43.9425 59.4L48.6945 50.832C49.2705 51.216 49.9665 51.624 50.7825 52.056C51.5985 52.488 52.5105 52.896 53.5185 53.28C54.5745 53.664 55.6785 54 56.8305 54.288C57.9825 54.528 59.1825 54.648 60.4305 54.648Z"
    fill="#56CCF2"
  />
</svg>
